<?xml version="1.0" standalone="no"?><svg xmlns="http://www.w3.org/2000/svg" viewBox="0 0 1440 320"><path fill="#340050" fill-opacity="0.8" d="M0,256L24,224C48,192,96,128,144,96C192,64,240,64,288,90.7C336,117,384,171,432,197.3C480,224,528,224,576,218.7C624,213,672,203,720,170.7C768,139,816,85,864,101.3C912,117,960,203,1008,218.7C1056,235,1104,181,1152,165.3C1200,149,1248,171,1296,202.7C1344,235,1392,277,1416,298.7L1440,320L1440,0L1416,0C1392,0,1344,0,1296,0C1248,0,1200,0,1152,0C1104,0,1056,0,1008,0C960,0,912,0,864,0C816,0,768,0,720,0C672,0,624,0,576,0C528,0,480,0,432,0C384,0,336,0,288,0C240,0,192,0,144,0C96,0,48,0,24,0L0,0Z"></path></svg>