<?xml version="1.0" standalone="no"?><svg xmlns="http://www.w3.org/2000/svg" viewBox="0 0 1440 320"><path fill="#0099ff" fill-opacity="1" d="M0,192L21.8,176C43.6,160,87,128,131,144C174.5,160,218,224,262,261.3C305.5,299,349,309,393,277.3C436.4,245,480,171,524,133.3C567.3,96,611,96,655,106.7C698.2,117,742,139,785,170.7C829.1,203,873,245,916,229.3C960,213,1004,139,1047,133.3C1090.9,128,1135,192,1178,197.3C1221.8,203,1265,149,1309,133.3C1352.7,117,1396,139,1418,149.3L1440,160L1440,320L1418.2,320C1396.4,320,1353,320,1309,320C1265.5,320,1222,320,1178,320C1134.5,320,1091,320,1047,320C1003.6,320,960,320,916,320C872.7,320,829,320,785,320C741.8,320,698,320,655,320C610.9,320,567,320,524,320C480,320,436,320,393,320C349.1,320,305,320,262,320C218.2,320,175,320,131,320C87.3,320,44,320,22,320L0,320Z"></path></svg>